<?xml version="1.0" standalone="no"?>
<!DOCTYPE svg PUBLIC "-//W3C//DTD SVG 20010904//EN"
 "http://www.w3.org/TR/2001/REC-SVG-20010904/DTD/svg10.dtd">
<svg version="1.0" xmlns="http://www.w3.org/2000/svg"
 width="942.000000pt" height="737.000000pt" viewBox="0 0 942.000000 737.000000"
 preserveAspectRatio="xMidYMid meet">

<g transform="translate(0.000000,737.000000) scale(0.100000,-0.100000)"
fill="#ffffff" stroke="none">
<path d="M6000 7357 c-34 -17 -112 -174 -140 -285 -28 -108 -38 -331 -21 -454
43 -303 187 -548 431 -736 100 -77 110 -88 110 -120 0 -41 -89 -300 -106 -306
-29 -11 -50 -6 -134 34 -100 49 -221 127 -310 200 -36 29 -191 180 -345 335
-299 300 -413 401 -595 525 -151 103 -201 174 -202 286 -1 102 81 219 199 286
65 37 65 53 3 88 -40 22 -59 25 -175 28 -208 6 -317 -19 -773 -183 -118 -42
-121 -42 -262 -21 -336 51 -777 20 -1065 -75 -235 -77 -488 -234 -669 -415
-302 -302 -495 -683 -573 -1129 -27 -156 -24 -534 5 -724 90 -577 327 -1045
737 -1457 422 -425 879 -672 1425 -772 135 -24 165 -26 435 -26 315 0 450 12
665 60 285 64 557 195 808 391 l82 64 67 -27 c199 -79 595 -107 848 -59 96 19
136 34 173 69 54 48 69 132 32 178 -26 34 -268 142 -541 242 -94 34 -95 32 63
211 257 294 401 505 519 765 111 242 206 565 265 895 21 117 27 178 26 281 -1
90 2 135 11 147 8 10 47 22 112 32 434 73 756 342 884 740 42 130 62 235 68
357 l6 107 -36 36 c-58 58 -78 52 -199 -65 -98 -95 -176 -148 -251 -172 -18
-5 -104 -13 -192 -18 -130 -6 -175 -12 -240 -33 -93 -31 -184 -83 -261 -151
-30 -27 -57 -47 -58 -45 -2 2 -11 31 -21 64 -26 91 -72 171 -139 236 -48 48
-89 74 -209 135 -152 77 -226 132 -267 198 -10 18 -35 82 -55 143 -19 61 -43
117 -53 126 -26 23 -54 28 -82 14z m-3590 -1774 c256 -42 491 -118 735 -237
417 -205 764 -503 1067 -916 30 -41 133 -190 228 -330 283 -417 432 -604 637
-800 95 -92 302 -262 351 -289 9 -5 14 -12 11 -16 -14 -13 -258 -17 -362 -6
-239 26 -367 81 -586 250 -505 391 -813 566 -919 522 -81 -34 -62 -172 48
-364 56 -98 63 -138 29 -181 -37 -47 -95 -69 -191 -74 -161 -8 -320 43 -501
161 -501 328 -834 769 -1033 1372 -82 250 -134 535 -134 738 0 87 1 90 33 122
23 23 48 36 88 44 155 32 319 34 499 4z m2718 -188 c179 -42 358 -199 542
-474 78 -117 140 -240 147 -292 5 -34 2 -42 -28 -72 -50 -49 -157 -81 -252
-75 -39 3 -92 14 -117 25 -68 30 -162 114 -195 175 -30 52 -30 55 -30 208 -1
85 -2 160 -3 167 -5 26 -59 77 -107 99 -29 14 -69 24 -95 24 -131 0 -200 77
-139 154 53 67 155 90 277 61z m-126 -346 c28 -15 50 -72 39 -102 -12 -32 -58
-67 -87 -67 -12 0 -36 12 -53 26 -82 69 6 194 101 143z"/>
<path d="M8380 1030 l0 -720 115 0 115 0 0 720 0 720 -115 0 -115 0 0 -720z"/>
<path d="M800 1227 c0 -513 -2 -530 -55 -607 -14 -20 -49 -50 -78 -66 -43 -23
-67 -29 -139 -32 -156 -8 -244 33 -295 135 -26 54 -28 67 -28 178 0 111 2 124
28 178 50 100 118 134 289 144 l108 6 0 100 0 100 -127 -6 c-190 -9 -291 -44
-370 -130 -86 -94 -123 -208 -123 -388 0 -120 9 -179 40 -262 57 -153 174
-234 373 -259 117 -14 228 5 295 52 23 16 51 30 62 30 17 0 20 -7 20 -45 l0
-45 115 0 115 0 0 695 0 695 -115 0 -115 0 0 -473z"/>
<path d="M3590 705 l0 -695 114 0 115 0 4 477 c4 510 4 512 56 595 45 70 110
100 227 106 208 10 310 -82 322 -289 7 -129 -29 -233 -101 -289 -44 -35 -108
-52 -219 -57 l-108 -6 0 -98 0 -99 103 0 c298 1 454 115 503 368 40 212 -8
444 -115 551 -78 78 -205 123 -351 124 -105 1 -177 -16 -230 -54 -22 -16 -51
-29 -65 -29 -23 0 -25 4 -25 45 l0 45 -115 0 -115 0 0 -695z"/>
<path d="M1541 1374 c-88 -24 -138 -50 -194 -103 -87 -83 -131 -194 -144 -362
-15 -220 58 -425 184 -508 176 -117 480 -117 656 0 55 36 112 110 138 179 l19
50 -111 0 -111 0 -40 -35 c-56 -47 -126 -69 -223 -69 -106 0 -175 24 -230 79
-60 60 -80 123 -80 255 0 99 2 109 34 174 52 106 127 146 276 146 146 0 223
-40 274 -141 17 -34 31 -73 31 -86 l0 -23 -210 0 -210 0 0 -80 0 -80 316 0
317 0 -6 118 c-9 187 -50 295 -146 386 -56 52 -126 87 -209 105 -74 15 -265
13 -331 -5z"/>
<path d="M2738 1374 c-223 -54 -338 -230 -338 -519 0 -245 85 -415 244 -489
80 -37 152 -50 271 -50 171 1 274 35 366 121 45 42 109 148 109 180 0 10 -25
13 -115 13 -103 0 -115 -2 -125 -19 -15 -29 -126 -79 -190 -86 -65 -8 -169 9
-219 35 -49 25 -86 66 -113 125 -20 43 -23 66 -23 170 0 111 2 124 28 177 52
106 133 148 283 148 109 0 178 -25 232 -84 35 -38 72 -120 72 -158 0 -4 -94
-8 -210 -8 l-210 0 0 -80 0 -80 316 0 317 0 -7 110 c-19 291 -120 437 -343
495 -72 19 -267 18 -345 -1z"/>
<path d="M5103 1375 c-180 -40 -273 -156 -261 -326 10 -130 84 -215 226 -259
44 -14 117 -24 212 -30 163 -10 212 -21 246 -55 66 -66 31 -156 -74 -186 -60
-18 -234 -17 -287 0 -48 16 -91 54 -99 87 -6 24 -7 24 -141 24 -154 0 -147 5
-119 -89 20 -67 79 -132 151 -167 87 -41 181 -56 343 -57 216 -1 339 29 423
103 118 105 128 286 21 400 -75 81 -183 115 -411 128 -190 12 -245 40 -245
127 0 86 72 127 221 127 67 0 109 -5 139 -17 46 -19 82 -57 82 -86 0 -18 10
-19 121 -19 l121 0 -7 48 c-16 111 -92 194 -213 233 -86 28 -350 37 -449 14z"/>
<path d="M6328 1374 c-172 -41 -285 -161 -324 -342 -18 -86 -18 -268 0 -354
40 -186 154 -305 336 -349 71 -17 249 -17 320 0 138 34 236 106 290 214 16 33
30 66 30 74 0 10 -25 13 -113 13 -112 0 -114 0 -141 -29 -60 -62 -182 -92
-296 -71 -80 14 -128 39 -168 85 -57 64 -66 97 -66 235 -1 111 2 131 23 178
47 105 135 152 282 152 116 0 184 -24 237 -85 37 -42 78 -138 66 -156 -3 -5
-97 -9 -210 -9 l-204 0 0 -80 0 -80 310 0 310 0 0 103 c0 276 -112 444 -335
502 -74 19 -268 19 -347 -1z"/>
<path d="M7523 1375 c-229 -62 -336 -228 -336 -520 0 -189 38 -307 129 -405
88 -94 202 -134 384 -134 219 0 370 75 443 221 50 99 54 93 -76 93 -109 0
-114 -1 -138 -26 -34 -37 -85 -61 -159 -74 -135 -24 -276 22 -331 108 -41 64
-52 112 -53 217 0 110 22 181 72 237 57 63 102 81 213 86 114 5 186 -12 241
-58 41 -34 88 -120 88 -162 l0 -28 -210 0 -210 0 0 -80 0 -80 315 0 315 0 0
93 c-1 284 -118 459 -342 512 -80 19 -275 19 -345 0z"/>
<path d="M8938 1132 c-101 -119 -188 -224 -195 -232 -9 -12 23 -67 181 -300
l193 -285 142 -3 c77 -1 141 0 141 2 0 3 -86 132 -191 286 -104 155 -189 285
-187 290 2 4 82 102 178 217 96 114 181 216 189 226 13 16 5 17 -127 17 l-141
0 -183 -218z"/>
</g>
</svg>
